<svg xmlns="http://www.w3.org/2000/svg" viewBox="0 0 283.5 283.5" style="enable-background:new 0 0 283.5 283.5" xml:space="preserve"><style>.st1{fill:url(#SVGID_00000139255201489438748190000002051599573515998098_)}</style><radialGradient id="SVGID_1_" cx="38.4" cy="813.9" r="266.7" gradientTransform="translate(0 -558)" gradientUnits="userSpaceOnUse"><stop offset=".1" style="stop-color:#004fff"/><stop offset=".5" style="stop-color:#cb06ed"/><stop offset=".8" style="stop-color:#ff0062"/><stop offset="1" style="stop-color:#ff8500"/></radialGradient><path d="M141.7 10c35.2 0 68.3 13.7 93.1 38.6a131.3 131.3 0 0 1 0 186.2 131.3 131.3 0 0 1-186.2 0C23.8 209.9 10 176.9 10 141.7s13.7-68.3 38.6-93.1S106.5 10 141.7 10m0-10a141.8 141.8 0 1 0 .2 283.6A141.8 141.8 0 0 0 141.7 0z" style="fill:url(#SVGID_1_)"/><radialGradient id="SVGID_00000163786088620989682370000017931451140397164162_" cx="-1560.8" cy="74.9" r="1.1" gradientTransform="matrix(155.65 -132.43 131.53 154.6 233127 -218047.4)" gradientUnits="userSpaceOnUse"><stop offset=".1" style="stop-color:#004fff"/><stop offset=".5" style="stop-color:#cb06ed"/><stop offset=".8" style="stop-color:#ff0062"/><stop offset="1" style="stop-color:#ff8500"/></radialGradient><path style="fill:url(#SVGID_00000163786088620989682370000017931451140397164162_)" d="M141.9 27.3c-24.7 0-48.8 8.1-68.6 23.2a114.5 114.5 0 0 0-40.6 60.2 114.3 114.3 0 0 0 50.5 128.1c4.3 2.6 9.3 4 14.2 4h.4a28.8 28.8 0 0 0 19.9-8.1c2.6-2.6 4.7-5.8 6-9.2 1.3-3.4 2.1-7.1 2.1-10.8v-51.9c0-.4-.1-.6-.4-.7l-.7-.4h-16.9c-2.1.1-4.3-.2-6.3-1-2-.7-3.8-2-5.4-3.4a14.7 14.7 0 0 1-3.6-5.3c-.7-2-1.2-4.2-1.2-6.3 0-2.1.5-4.3 1.2-6.3s2-3.8 3.6-5.3 3.3-2.7 5.4-3.4a17 17 0 0 1 6.3-1h68.1c2.1-.1 4.3.2 6.3 1 2 .7 3.8 2 5.4 3.4 1.6 1.5 2.8 3.3 3.6 5.3.7 2 1.2 4.2 1.2 6.3 0 2.1-.5 4.3-1.2 6.3s-2 3.8-3.6 5.3-3.3 2.7-5.4 3.4-4.2 1.1-6.3 1H159c-.4 0-.6.1-.7.4l-.4.7v51.9a28.5 28.5 0 0 0 28.2 28.2h.4c5 0 9.9-1.5 14.2-4a114.3 114.3 0 0 0 46.7-55.5 114.7 114.7 0 0 0-36.8-132.6 112.4 112.4 0 0 0-68.7-23.5zM61.5 163.8c-3.6 0-7.1-1-10.1-3.1-3.1-2-5.3-4.8-6.7-8.2a19 19 0 0 1-1-10.6 20 20 0 0 1 4.9-9.3c2.6-2.6 5.8-4.3 9.3-4.9a17.6 17.6 0 0 1 18.5 7.7c2 3.1 3.1 6.5 3.1 10.1 0 4.8-2 9.4-5.3 12.8a17 17 0 0 1-12.7 5.5zm80.4-54.3c-5.6 0-11-1.7-15.6-4.7A28.7 28.7 0 0 1 116 92.2a28.5 28.5 0 0 1-1.6-16.3 28.5 28.5 0 0 1 22.1-22.2 27.9 27.9 0 0 1 33.6 27.7 28 28 0 0 1-28.2 28.1zm80.1 54.3a18.2 18.2 0 0 1-17.8-21.9 20 20 0 0 1 4.9-9.3c2.6-2.6 5.8-4.3 9.3-4.9a17.6 17.6 0 0 1 18.5 7.7c2 3.1 3.1 6.5 3.1 10.1 0 4.8-2 9.4-5.3 12.9a17 17 0 0 1-12.7 5.4z"/></svg>